<svg fill="none" height="36" viewBox="0 0 36 36" width="36" xmlns="http://www.w3.org/2000/svg">
    <circle cx="29" cy="12.5" fill="#0083e4" r="1.5"/>
    <circle cx="34.5" cy="12.5" fill="#70c1ff" r="1.5"/>
    <circle cx="29" cy="18" fill="#0083e4" r="1.5"/>
    <circle cx="34.5" cy="18" fill="#70c1ff" r="1.5"/>
    <circle cx="29" cy="23.5" fill="#0083e4" r="1.5"/>
    <circle cx="34.5" cy="23.5" fill="#70c1ff" r="1.5"/>
    <circle cx="29" cy="7" fill="#0083e4" r="1.5"/>
    <circle cx="34.5" cy="7" fill="#70c1ff" r="1.5"/>
    <circle cx="29" cy="1.5" fill="#70c1ff" r="1.5"/>
    <circle cx="34.5" cy="1.5" fill="#70c1ff" r="1.5"/>
    <circle cx="29" cy="29" fill="#0083e4" r="1.5"/>
    <g fill="#70c1ff">
        <circle cx="34.5" cy="29" r="1.5"/>
        <circle cx="29" cy="34.5" r="1.5"/>
        <circle cx="34.5" cy="34.5" r="1.5"/>
        <circle cx="1.5" cy="12.5" r="1.5"/>
    </g>
    <circle cx="7" cy="12.5" fill="#0083e4" r="1.5"/>
    <circle cx="1.5" cy="18" fill="#70c1ff" r="1.5"/>
    <circle cx="7" cy="18" fill="#0083e4" r="1.5"/>
    <circle cx="1.5" cy="23.5" fill="#70c1ff" r="1.5"/>
    <circle cx="7" cy="23.5" fill="#0083e4" r="1.5"/>
    <circle cx="1.5" cy="7" fill="#70c1ff" r="1.5"/>
    <circle cx="7" cy="7" fill="#0083e4" r="1.5"/>
    <circle cx="1.5" cy="1.5" fill="#70c1ff" r="1.5"/>
    <circle cx="7" cy="1.5" fill="#70c1ff" r="1.5"/>
    <circle cx="1.5" cy="29" fill="#70c1ff" r="1.5"/>
    <circle cx="7" cy="29" fill="#0083e4" r="1.5"/>
    <circle cx="1.5" cy="34.5" fill="#70c1ff" r="1.5"/>
    <circle cx="7" cy="34.5" fill="#70c1ff" r="1.5"/>
    <circle cx="12.5" cy="29" fill="#0083e4" r="1.5"/>
    <circle cx="12.5" cy="34.5" fill="#70c1ff" r="1.5"/>
    <circle cx="18" cy="29" fill="#0083e4" r="1.5"/>
    <circle cx="18" cy="34.5" fill="#70c1ff" r="1.5"/>
    <circle cx="23.5" cy="29" fill="#0083e4" r="1.5"/>
    <circle cx="23.5" cy="34.5" fill="#70c1ff" r="1.5"/>
    <circle cx="12.5" cy="1.5" fill="#70c1ff" r="1.5"/>
    <circle cx="12.5" cy="7" fill="#0083e4" r="1.5"/>
    <circle cx="18" cy="1.5" fill="#70c1ff" r="1.5"/>
    <circle cx="18" cy="7" fill="#0083e4" r="1.5"/>
    <circle cx="23.5" cy="1.5" fill="#70c1ff" r="1.5"/>
    <circle cx="23.5" cy="7" fill="#0083e4" r="1.5"/>
    <circle cx="18" cy="18" fill="#0083e4" r="7"/>
</svg>
